<svg xmlns="http://www.w3.org/2000/svg" width="28" height="28" viewBox="0 0 28 28">
  <g id="Group_68066" data-name="Group 68066" transform="translate(-30 -96)">
    <rect id="Rectangle_4294" data-name="Rectangle 4294" width="28" height="28" transform="translate(30 96)" fill="none"/>
    <g id="_013-date" data-name="013-date" transform="translate(32 98)">
      <g id="Group_67388" data-name="Group 67388" transform="translate(0 7.786)">
        <g id="Group_67387" data-name="Group 67387">
          <path id="Path_4713" data-name="Path 4713" d="M1.094,115.2H0v11.682A4.108,4.108,0,0,0,4.421,131.3H19.642a4.1,4.1,0,0,0,4.421-4.421V115.2Zm10.259,11.107a.81.81,0,0,1-.607.208H6.188a.985.985,0,0,1-.717-.257.821.821,0,0,1-.257-.6,1.532,1.532,0,0,1,.17-.591,2.127,2.127,0,0,1,.367-.58q.815-.854,1.472-1.461a9.525,9.525,0,0,1,.947-.8,5.472,5.472,0,0,0,.843-.722,2.856,2.856,0,0,0,.514-.744,1.763,1.763,0,0,0,.175-.744,1.346,1.346,0,0,0-.186-.706A1.307,1.307,0,0,0,9,118.822a1.482,1.482,0,0,0-.706-.175,1.45,1.45,0,0,0-1.275.711,3.1,3.1,0,0,0-.208.509,2.123,2.123,0,0,1-.328.64.651.651,0,0,1-.547.224.7.7,0,0,1-.514-.2.75.75,0,0,1-.2-.547,2.33,2.33,0,0,1,.192-.892,2.566,2.566,0,0,1,.547-.843,2.845,2.845,0,0,1,.963-.607,3.7,3.7,0,0,1,1.373-.23,3.966,3.966,0,0,1,1.641.3,2.423,2.423,0,0,1,.761.547A2.555,2.555,0,0,1,11.392,120a2.637,2.637,0,0,1-.383,1.4,4.332,4.332,0,0,1-.777.985q-.394.356-1.33,1.094a9.85,9.85,0,0,0-1.242,1.182,3.468,3.468,0,0,0-.3.4h3.228a1.182,1.182,0,0,1,.739.2.646.646,0,0,1,.252.547A.717.717,0,0,1,11.353,126.307Zm5.958-7.972-.016,7.337c0,.832-.285,1-.848,1s-.837-.438-.837-1v-5.63a5.05,5.05,0,0,1-2.117,1.209.629.629,0,0,1-.46-.208.667.667,0,0,1-.2-.481.547.547,0,0,1,.2-.465,4.316,4.316,0,0,1,.7-.383,5.268,5.268,0,0,0,1.2-.744,5.1,5.1,0,0,0,.793-.875,7.375,7.375,0,0,1,.454-.6.547.547,0,0,1,.394-.109.635.635,0,0,1,.547.252A1.094,1.094,0,0,1,17.312,118.335Z" transform="translate(0 -115.2)" fill="#eaeaea"/>
        </g>
      </g>
      <g id="Group_67390" data-name="Group 67390" transform="translate(0.011 0)">
        <g id="Group_67389" data-name="Group 67389">
          <path id="Path_4714" data-name="Path 4714" d="M22.117,1.907a5.149,5.149,0,0,0-2.325-.547h-.618v2.1a1.39,1.39,0,0,1,.837,1.313,1.477,1.477,0,0,1-.345.968,1.324,1.324,0,0,1-1.04.454,1.357,1.357,0,0,1-1.386-1.328q0-.048,0-.095a1.477,1.477,0,0,1,.345-.968,1.259,1.259,0,0,1,.492-.35V1.36H6.293v2.1a1.39,1.39,0,0,1,.837,1.313,1.477,1.477,0,0,1-.345.968,1.324,1.324,0,0,1-1.04.454A1.357,1.357,0,0,1,4.361,4.863q0-.048,0-.095A1.477,1.477,0,0,1,4.707,3.8,1.259,1.259,0,0,1,5.2,3.45V1.36H4.581A4.108,4.108,0,0,0,.16,5.781V8.051H24.223V5.781A4.024,4.024,0,0,0,22.117,1.907Z" transform="translate(-0.16 -1.36)" fill="#eaeaea"/>
        </g>
      </g>
    </g>
  </g>
</svg>
