<svg id="_013-date" data-name="013-date" xmlns="http://www.w3.org/2000/svg" width="27.496" height="27.284" viewBox="0 0 27.496 27.284">
  <g id="Group_67388" data-name="Group 67388" transform="translate(0 8.892)">
    <g id="Group_67387" data-name="Group 67387">
      <path id="Path_4713" data-name="Path 4713" d="M1.25,115.2H0v13.342c0,2.443,1.325,5.049,5.049,5.049H22.434c3.749,0,5.049-2.612,5.049-5.049V115.2Zm11.717,12.686a.925.925,0,0,1-.694.237H7.068a1.125,1.125,0,0,1-.819-.294.937.937,0,0,1-.294-.687,1.749,1.749,0,0,1,.194-.675,2.43,2.43,0,0,1,.419-.662q.931-.975,1.681-1.669a10.88,10.88,0,0,1,1.081-.912,6.249,6.249,0,0,0,.962-.825,3.262,3.262,0,0,0,.587-.85,2.013,2.013,0,0,0,.2-.85,1.537,1.537,0,0,0-.212-.806,1.493,1.493,0,0,0-.587-.556,1.693,1.693,0,0,0-.806-.2,1.656,1.656,0,0,0-1.456.812,3.538,3.538,0,0,0-.237.581,2.425,2.425,0,0,1-.375.731.744.744,0,0,1-.625.256.794.794,0,0,1-.587-.231.856.856,0,0,1-.231-.625,2.662,2.662,0,0,1,.219-1.019,2.931,2.931,0,0,1,.625-.962,3.249,3.249,0,0,1,1.1-.694,4.225,4.225,0,0,1,1.569-.262,4.53,4.53,0,0,1,1.875.337,2.767,2.767,0,0,1,.869.625,2.918,2.918,0,0,1,.794,1.993,3.012,3.012,0,0,1-.437,1.594,4.948,4.948,0,0,1-.887,1.125q-.45.406-1.519,1.25A11.249,11.249,0,0,0,8.749,126a3.96,3.96,0,0,0-.344.456h3.687a1.35,1.35,0,0,1,.844.225.738.738,0,0,1,.287.625A.819.819,0,0,1,12.967,127.886Zm6.805-9.1-.019,8.38c0,.95-.325,1.137-.969,1.137s-.956-.5-.956-1.144v-6.43a5.768,5.768,0,0,1-2.418,1.381.719.719,0,0,1-.525-.237.762.762,0,0,1-.231-.55.625.625,0,0,1,.225-.531,4.929,4.929,0,0,1,.8-.437,6.017,6.017,0,0,0,1.369-.85,5.829,5.829,0,0,0,.906-1,8.425,8.425,0,0,1,.519-.681.625.625,0,0,1,.45-.125.725.725,0,0,1,.625.287A1.25,1.25,0,0,1,19.772,118.781Z" transform="translate(0 -115.2)" fill="#072d4d"/>
    </g>
  </g>
  <g id="Group_67390" data-name="Group 67390" transform="translate(0.012 0)">
    <g id="Group_67389" data-name="Group 67389">
      <path id="Path_4714" data-name="Path 4714" d="M25.238,1.985a5.88,5.88,0,0,0-2.656-.625h-.706V3.753a1.587,1.587,0,0,1,.956,1.5,1.687,1.687,0,0,1-.394,1.106,1.512,1.512,0,0,1-1.187.519,1.55,1.55,0,0,1-1.583-1.516q0-.054,0-.108a1.687,1.687,0,0,1,.394-1.106,1.438,1.438,0,0,1,.562-.4V1.36H7.165V3.753a1.587,1.587,0,0,1,.956,1.5,1.687,1.687,0,0,1-.394,1.106,1.512,1.512,0,0,1-1.187.519A1.55,1.55,0,0,1,4.958,5.361q0-.054,0-.108a1.687,1.687,0,0,1,.394-1.106,1.438,1.438,0,0,1,.562-.4V1.36H5.209C2.766,1.36.16,2.684.16,6.409V9H27.643V6.409A4.6,4.6,0,0,0,25.238,1.985Z" transform="translate(-0.16 -1.36)" fill="#072d4d"/>
    </g>
  </g>
</svg>
