<svg xmlns="http://www.w3.org/2000/svg" width="28" height="28" viewBox="0 0 28 28">
  <g id="Group_69615" data-name="Group 69615" transform="translate(14545 10400)">
    <g id="surface1" transform="translate(-14540.916 -10399.8)">
      <path id="Path_4808" data-name="Path 4808" d="M19.48,3.824a.817.817,0,0,0-.815-.816H12.858V2.964a2.965,2.965,0,0,0-5.93,0,.4.4,0,0,0,0,.044h-5.8a.817.817,0,0,0-.815.816V6.761H19.478ZM7.7,2.968a2.2,2.2,0,1,1,4.4,0,.39.39,0,0,0,0,.043h-4.4A.381.381,0,0,0,7.7,2.968ZM15.47,5.687H4.325a.382.382,0,0,1,0-.765H15.47a.382.382,0,0,1,0,.765Zm0,0" fill="#eaeaea"/>
      <path id="Path_4809" data-name="Path 4809" d="M18.665,56.787a.817.817,0,0,0,.815-.816V36.715H.316V55.971a.818.818,0,0,0,.815.816ZM7.656,40.164h9.037a.382.382,0,0,1,0,.765H7.656a.382.382,0,0,1,0-.765Zm0,3.986h9.037a.382.382,0,1,1,0,.764H7.656a.382.382,0,1,1,0-.764Zm0,3.984h9.037a.382.382,0,0,1,0,.765H7.656a.382.382,0,0,1,0-.765Zm0,3.986h9.037a.382.382,0,0,1,0,.765H7.656a.382.382,0,0,1,0-.765ZM3.337,39.754a.381.381,0,0,1,.532.094l.369.528,2.11-1.654a.382.382,0,0,1,.472.6l-2.437,1.9a.384.384,0,0,1-.235.081H4.093a.38.38,0,0,1-.255-.158l-.6-.858a.382.382,0,0,1,.1-.532Zm0,3.927a.383.383,0,0,1,.532.094l.369.528,2.11-1.654a.383.383,0,0,1,.472.6l-2.437,1.9a.4.4,0,0,1-.235.082H4.093a.379.379,0,0,1-.255-.159l-.6-.861a.382.382,0,0,1,.094-.533Zm0,3.94a.382.382,0,0,1,.532.094l.369.528,2.11-1.657a.382.382,0,1,1,.489.588l-.017.014-2.437,1.9a.38.38,0,0,1-.235.082H4.093a.383.383,0,0,1-.255-.158l-.6-.859a.381.381,0,0,1,.092-.532l.008-.006Zm0,3.986a.383.383,0,0,1,.532.094l.369.529,2.11-1.644a.382.382,0,0,1,.472.6l-2.437,1.9a.383.383,0,0,1-.235.082H4.093a.381.381,0,0,1-.255-.158l-.6-.872a.383.383,0,0,1,.091-.533.005.005,0,0,0,0,0Zm0,0" transform="translate(0 -29.189)" fill="#eaeaea"/>
    </g>
    <rect id="Rectangle_4329" data-name="Rectangle 4329" width="28" height="28" transform="translate(-14545 -10400)" fill="none"/>
  </g>
</svg>
