<svg id="download_1_" data-name="download (1)" xmlns="http://www.w3.org/2000/svg" width="16.048" height="24.072" viewBox="0 0 16.048 24.072">
  <g id="Group_67667" data-name="Group 67667" transform="translate(0)">
    <g id="Group_67666" data-name="Group 67666">
      <path id="Path_4759" data-name="Path 4759" d="M92.648,19.766h0c.023.023.048.045.073.066l.036.027.043.032.044.027.04.024.046.022.043.02.045.016.048.017.046.012.05.012.053.008.044.006a1.009,1.009,0,0,0,.2,0l.044-.006.053-.008.05-.012.046-.012L93.7,20l.045-.016.043-.02.046-.022.04-.024.044-.027.043-.032.036-.027c.025-.021.05-.043.073-.066h0l7.021-7.021a1,1,0,0,0-1.418-1.418l-5.309,5.309V1a1,1,0,0,0-2.006,0V16.635l-5.309-5.309a1,1,0,1,0-1.418,1.418Z" transform="translate(-85.334)" fill="#f69c22"/>
      <path id="Path_4760" data-name="Path 4760" d="M100.379,469.333H86.337a1,1,0,0,0,0,2.006h14.042a1,1,0,1,0,0-2.006Z" transform="translate(-85.334 -447.267)" fill="#f69c22"/>
    </g>
  </g>
</svg>
