<svg id="_015-file" data-name="015-file" xmlns="http://www.w3.org/2000/svg" width="23.451" height="28.024" viewBox="0 0 23.451 28.024">
  <g id="Group_67370" data-name="Group 67370" transform="translate(0)">
    <g id="Group_67369" data-name="Group 67369">
      <path id="Path_4699" data-name="Path 4699" d="M49.493,7.831a1.07,1.07,0,0,1-1.07-1.07V0h-13.2A1.022,1.022,0,0,0,34.2,1.022V25.167a1.022,1.022,0,0,0,1.022,1.022h14.2a4.561,4.561,0,0,1-.326-1.07,4.841,4.841,0,0,1,6.087-5.552,4.642,4.642,0,0,1,.535.182,4.876,4.876,0,0,1,.535.262V7.831ZM38.474,10.773H52a.535.535,0,1,1,0,1.07H38.474a.535.535,0,1,1,0-1.07ZM46.8,23.4H38.474a.535.535,0,1,1,0-1.07H46.8a.535.535,0,1,1,0,1.07ZM48.1,20.508H38.474a.535.535,0,1,1,0-1.07H48.1a.535.535,0,0,1,0,1.07Zm3.9-2.888H38.474a.535.535,0,1,1,0-1.07H52.007a.535.535,0,0,1,0,1.07Zm0-2.888H38.474a.535.535,0,1,1,0-1.07H52.007a.535.535,0,0,1,0,1.07Z" transform="translate(-34.2)" fill="#072d4d"/>
    </g>
  </g>
  <g id="Group_67372" data-name="Group 67372" transform="translate(15.293 0.872)">
    <g id="Group_67371" data-name="Group 67371">
      <path id="Path_4700" data-name="Path 4700" d="M262.92,13.04v5.868l4.926.016h.77Z" transform="translate(-262.92 -13.04)" fill="#072d4d"/>
    </g>
  </g>
  <g id="Group_67374" data-name="Group 67374" transform="translate(15.875 20.448)">
    <g id="Group_67373" data-name="Group 67373">
      <path id="Path_4701" data-name="Path 4701" d="M277.8,306.664a3.745,3.745,0,0,0-1.07-.61,3.787,3.787,0,1,0,1.07.61Zm.166,1.531-.016.02h-.005l-.144.182-.535.653-.535.653-.642.786-.439.535-.439.535a.521.521,0,0,1-.829-.016l-.4-.535-.4-.535-.829-1.107a.535.535,0,0,1,.855-.643h0l1.22,1.6,1.926-2.359.391-.476a.535.535,0,0,1,.658-.086.5.5,0,0,1,.07.037A.535.535,0,0,1,277.969,308.2Z" transform="translate(-271.63 -305.818)" fill="#072d4d"/>
    </g>
  </g>
</svg>
