<svg id="list" xmlns="http://www.w3.org/2000/svg" width="27" height="27.293" viewBox="0 0 27 27.293">
  <g id="Group_67380" data-name="Group 67380" transform="translate(4.782 8.571)">
    <g id="Group_67379" data-name="Group 67379">
      <path id="Path_4709" data-name="Path 4709" d="M77.107,126.32H72.721a.081.081,0,0,0-.081.081v4.386a.081.081,0,0,0,.081.081h4.386a.081.081,0,0,0,.081-.081V126.4A.081.081,0,0,0,77.107,126.32Z" transform="translate(-72.64 -126.32)" fill="#072d4d"/>
    </g>
  </g>
  <g id="Group_67382" data-name="Group 67382" transform="translate(4.782 18.326)">
    <g id="Group_67381" data-name="Group 67381">
      <path id="Path_4710" data-name="Path 4710" d="M77.107,270.08H72.721a.081.081,0,0,0-.081.081v4.386a.081.081,0,0,0,.081.081h4.386a.081.081,0,0,0,.081-.081v-4.386A.081.081,0,0,0,77.107,270.08Z" transform="translate(-72.64 -270.08)" fill="#072d4d"/>
    </g>
  </g>
  <g id="Group_67384" data-name="Group 67384" transform="translate(0 2.899)">
    <g id="Group_67383" data-name="Group 67383">
      <path id="Path_4711" data-name="Path 4711" d="M24.394,42.72H21.941a2.893,2.893,0,0,1,.836,1.086,3.74,3.74,0,0,1,.3,1.552.407.407,0,0,1-.407.407H9.532a.407.407,0,0,1-.407-.407,3.74,3.74,0,0,1,.3-1.552,2.693,2.693,0,0,1,.858-1.086H6.926A4.478,4.478,0,0,0,2.16,47.486V62.349a4.478,4.478,0,0,0,4.766,4.766H24.394a4.478,4.478,0,0,0,4.766-4.766V47.5A4.481,4.481,0,0,0,24.394,42.72ZM14.77,48.664h3.523a.543.543,0,0,1,0,1.086H14.77a.543.543,0,0,1,0-1.086Zm-2.2,13.945A1.173,1.173,0,0,1,11.4,63.782H7.024a1.173,1.173,0,0,1-1.167-1.167V58.229a1.173,1.173,0,0,1,1.167-1.167H11.4a1.173,1.173,0,0,1,1.167,1.167v4.381Zm0-9.755A1.173,1.173,0,0,1,11.4,54.011H7.024a1.173,1.173,0,0,1-1.167-1.167v-4.37a1.173,1.173,0,0,1,1.167-1.167H11.4a1.173,1.173,0,0,1,1.167,1.167v4.381ZM23.3,62.425H14.77a.543.543,0,0,1,0-1.086H23.3a.543.543,0,0,1,0,1.086Zm-9.071-3.463a.543.543,0,0,1,.543-.543h3.523a.543.543,0,1,1,0,1.086H14.77A.543.543,0,0,1,14.227,58.961ZM23.3,52.67H14.77a.543.543,0,1,1,0-1.086H23.3a.543.543,0,0,1,0,1.086Z" transform="translate(-2.16 -42.72)" fill="#072d4d"/>
      <rect id="Rectangle_4219" data-name="Rectangle 4219" width="21" height="18" transform="translate(3 4.101)" fill="#072d4d"/>
    </g>
  </g>
  <g id="Group_67386" data-name="Group 67386" transform="translate(7.8)">
    <g id="Group_67385" data-name="Group 67385">
      <path id="Path_4712" data-name="Path 4712" d="M129,3.984a2.17,2.17,0,0,0-.543-.543,2.975,2.975,0,0,0-1.536-.51.4.4,0,0,1-.157-.033.407.407,0,0,1-.244-.375V0H120V2.524a.407.407,0,0,1-.244.375.4.4,0,0,1-.157.033,3.008,3.008,0,0,0-1.525.51,2.17,2.17,0,0,0-.543.543,2.46,2.46,0,0,0-.413,1.145H129.4A2.464,2.464,0,0,0,129,3.984ZM124.589,2.79h-2.66a.543.543,0,1,1,0-1.086h2.66a.543.543,0,1,1,0,1.086Z" transform="translate(-117.12)" fill="#072d4d"/>
    </g>
  </g>
</svg>
