<svg id="_009-mail-7" data-name="009-mail-7" xmlns="http://www.w3.org/2000/svg" width="23.654" height="28.065" viewBox="0 0 23.654 28.065">
  <g id="Group_67376" data-name="Group 67376" transform="translate(0 13.516)">
    <g id="Group_67375" data-name="Group 67375">
      <path id="Path_4702" data-name="Path 4702" d="M57.577,213.707a.506.506,0,0,0-.663-.086l-9.885,6.406a.673.673,0,0,1-.729,0l-9.824-6.365a.506.506,0,0,0-.715.036l-.009.01a4.051,4.051,0,0,0-.912,2.618v8.031a3.5,3.5,0,0,0,3.722,3.722h16.2a3.5,3.5,0,0,0,3.722-3.722v-8.031A3.687,3.687,0,0,0,57.577,213.707Z" transform="translate(-34.84 -213.531)" fill="#072d4d"/>
    </g>
  </g>
  <g id="Group_67378" data-name="Group 67378" transform="translate(1.879)">
    <g id="Group_67377" data-name="Group 67377">
      <path id="Path_4703" data-name="Path 4703" d="M82.9.02,65.539,0a1.013,1.013,0,0,0-1.013,1.013V12.2a.506.506,0,0,0,.233.43l9.449,6.127a.506.506,0,0,0,.562,0l8.913-5.788a.506.506,0,0,0,.233-.43V1.033A1.013,1.013,0,0,0,82.9.02ZM67.888,4.558h8.5a.506.506,0,1,1,0,1.013h-8.5a.506.506,0,0,1,0-1.013ZM80.5,11.267H67.888a.506.506,0,0,1,0-1.013H80.5a.506.506,0,0,1,0,1.013Zm0-2.836H67.888a.506.506,0,0,1,0-1.013H80.5a.506.506,0,0,1,0,1.013Z" transform="translate(-64.526)" fill="#072d4d"/>
    </g>
  </g>
</svg>
