<svg xmlns="http://www.w3.org/2000/svg" width="23.438" height="28.126" viewBox="0 0 23.438 28.126">
  <g id="bell" transform="translate(0 0)">
    <path id="Path_4716" data-name="Path 4716" d="M22.711,19.821a7.85,7.85,0,0,1-2.788-6.006V10.548a8.21,8.21,0,0,0-7.031-8.11V1.172a1.172,1.172,0,0,0-2.344,0V2.438a8.209,8.209,0,0,0-7.031,8.11v3.267a7.858,7.858,0,0,1-2.8,6.015,2.051,2.051,0,0,0,1.334,3.608H21.387a2.051,2.051,0,0,0,1.323-3.618Zm0,0" fill="#072d4d"/>
    <path id="Path_4717" data-name="Path 4717" d="M139.259,451.516A4.4,4.4,0,0,0,143.564,448h-8.611A4.4,4.4,0,0,0,139.259,451.516Zm0,0" transform="translate(-127.539 -423.389)" fill="#072d4d"/>
  </g>
</svg>
