<svg xmlns="http://www.w3.org/2000/svg" width="28" height="28" viewBox="0 0 28 28">
  <g id="Group_68050" data-name="Group 68050" transform="translate(-113.914 -39.957)">
    <rect id="Rectangle_4289" data-name="Rectangle 4289" width="28" height="28" transform="translate(113.914 39.957)" fill="none"/>
    <g id="owner" transform="translate(118.533 39.957)">
      <path id="Path_4788" data-name="Path 4788" d="M18,250.359l-5.02-2.126a.386.386,0,0,0-.317,0,.3.3,0,0,0-.181.226l-2.94,11.9-2.985-11.9a.452.452,0,0,0-.181-.226.382.382,0,0,0-.317,0l-4.975,1.9A1.576,1.576,0,0,0,0,251.581v10.267a.389.389,0,0,0,.362.362H18.589a.357.357,0,0,0,.362-.362V251.807a1.425,1.425,0,0,0-.95-1.447Zm0,0" transform="translate(0 -234.21)" fill="#eaeaea"/>
      <path id="Path_4789" data-name="Path 4789" d="M141.827,242.293a.96.96,0,0,0-.136-1.176.932.932,0,0,0-.769-.316h-1.357a1.18,1.18,0,0,0-.769.316,1.02,1.02,0,0,0-.136,1.176l.362.543a1.549,1.549,0,0,1,.226.995l-.226,2.352.678,1.855a.588.588,0,0,0,1.085,0l.678-1.855-.271-2.307a1.485,1.485,0,0,1,.226-.995Zm0,0" transform="translate(-130.701 -227.215)" fill="#eaeaea"/>
      <path id="Path_4790" data-name="Path 4790" d="M78.229,12.574a5.444,5.444,0,0,0,5.428-5.428V5.427a5.428,5.428,0,1,0-10.855,0V7.146A5.444,5.444,0,0,0,78.229,12.574Zm0,0" transform="translate(-68.685 0)" fill="#eaeaea"/>
    </g>
  </g>
</svg>
