<svg id="_003-settings" data-name="003-settings" xmlns="http://www.w3.org/2000/svg" width="27.816" height="27.892" viewBox="0 0 27.816 27.892">
  <g id="Group_67391" data-name="Group 67391" transform="translate(0 0)">
    <path id="Path_4715" data-name="Path 4715" d="M26.658,10.906h-3.04a10.447,10.447,0,0,0-.57-1.368L25.176,7.41a1.56,1.56,0,0,0,0-2.2L23.048,3.04a1.56,1.56,0,0,0-2.2,0L18.716,5.168a8.652,8.652,0,0,0-1.368-.57V1.558A1.565,1.565,0,0,0,15.79,0H12.75a1.524,1.524,0,0,0-1.52,1.52V4.56a10.447,10.447,0,0,0-1.368.57L7.734,3a1.56,1.56,0,0,0-2.2,0L3.4,5.206a1.56,1.56,0,0,0,0,2.2L5.568,9.538A8.652,8.652,0,0,0,5,10.906H1.958A1.565,1.565,0,0,0,.4,12.464V15.5a1.524,1.524,0,0,0,1.52,1.52H4.96a10.447,10.447,0,0,0,.57,1.368L3.4,20.52a1.56,1.56,0,0,0,0,2.2L5.568,24.89a1.56,1.56,0,0,0,2.2,0L9.9,22.724a8.653,8.653,0,0,0,1.368.57v3.04a1.565,1.565,0,0,0,1.558,1.558h3.04a1.524,1.524,0,0,0,1.52-1.52v-3.04a10.447,10.447,0,0,0,1.368-.57l2.128,2.128a1.56,1.56,0,0,0,2.2,0l2.166-2.166a1.56,1.56,0,0,0,0-2.2l-2.2-2.166a8.652,8.652,0,0,0,.57-1.368h3.04a1.565,1.565,0,0,0,1.558-1.558v-3.04A1.526,1.526,0,0,0,26.658,10.906ZM14.308,19.38a5.434,5.434,0,1,1,5.472-5.434A5.433,5.433,0,0,1,14.308,19.38Z" transform="translate(-0.4 0)" fill="#072d4d"/>
  </g>
</svg>
