<svg xmlns="http://www.w3.org/2000/svg" width="28" height="28" viewBox="0 0 28 28">
  <g id="Group_68049" data-name="Group 68049" transform="translate(-142 -40)">
    <rect id="Rectangle_4288" data-name="Rectangle 4288" width="28" height="28" transform="translate(142 40)" fill="none"/>
    <g id="identity-card" transform="translate(141.009 39.644)">
      <path id="Path_4786" data-name="Path 4786" d="M7.877,2.7A3.7,3.7,0,0,0,4,6.183V24.528a3.63,3.63,0,0,0,3.877,3.483H22.093a3.7,3.7,0,0,0,3.877-3.483V6.183A3.63,3.63,0,0,0,22.093,2.7H19.379V4.674a4.154,4.154,0,0,1-4.394,3.948,4.154,4.154,0,0,1-4.394-3.948V2.7Zm7.108,9.637a2.735,2.735,0,0,1,2.843,2.554,2.735,2.735,0,0,1-2.843,2.554,2.735,2.735,0,0,1-2.843-2.554A2.735,2.735,0,0,1,14.985,12.337Zm-3.36,7.082a.848.848,0,0,1,.9,0,5.75,5.75,0,0,0,2.455.464,9.186,9.186,0,0,0,2.585-.464,1.218,1.218,0,0,1,.9,0,6.131,6.131,0,0,1,1.809,1.742A1.638,1.638,0,0,1,18.733,23.6H11.366a1.558,1.558,0,0,1-1.551-2.322,4.4,4.4,0,0,1,1.809-1.858Z" transform="translate(0 0.345)" fill="#eaeaea"/>
      <path id="Path_4787" data-name="Path 4787" d="M14.47,5.011V2.235a1.735,1.735,0,1,0-3.47,0V5.011a1.735,1.735,0,1,0,3.47,0Z" transform="translate(2.25)" fill="#eaeaea"/>
    </g>
  </g>
</svg>
