<svg id="Group" xmlns="http://www.w3.org/2000/svg" width="35.75" height="33.917" viewBox="0 0 35.75 33.917">
  <path id="Union" d="M.4,7.847A1.375,1.375,0,0,1,.4,5.9L5.9.4A1.371,1.371,0,0,1,6.871,0h.008a1.371,1.371,0,0,1,.968.4l5.5,5.5A1.375,1.375,0,1,1,11.4,7.847L8.25,4.695V16.042a1.375,1.375,0,0,1-2.75,0V4.695L2.347,7.847A1.375,1.375,0,0,1,.4,7.847Z" transform="translate(11 16.5)" fill="rgba(7,45,77,0.5)"/>
  <path id="Union_Stroke_" data-name="Union (Stroke)" d="M23.375,0a12.375,12.375,0,0,1,8.25,21.6,1.375,1.375,0,1,1-1.834-2.049A9.626,9.626,0,1,0,14,10.177a1.375,1.375,0,0,1-2.081.845A5.959,5.959,0,1,0,5.73,21.2a1.375,1.375,0,1,1-1.377,2.38A8.71,8.71,0,0,1,11.83,7.91,12.378,12.378,0,0,1,23.375,0Z" transform="translate(0 0)" fill="rgba(7,45,77,0.5)"/>
</svg>
