<svg xmlns="http://www.w3.org/2000/svg" width="28" height="28" viewBox="0 0 28 28">
  <g id="Group_68067" data-name="Group 68067" transform="translate(-30 -124)">
    <rect id="Rectangle_4296" data-name="Rectangle 4296" width="28" height="28" transform="translate(30 124)" fill="none"/>
    <g id="_003-settings" data-name="003-settings" transform="translate(32.1 126.113)">
      <g id="Group_67391" data-name="Group 67391" transform="translate(0 0)">
        <path id="Path_4715" data-name="Path 4715" d="M22.883,9.338h-2.6a8.945,8.945,0,0,0-.488-1.171l1.822-1.822a1.335,1.335,0,0,0,0-1.887L19.792,2.6a1.335,1.335,0,0,0-1.887,0L16.083,4.425a7.408,7.408,0,0,0-1.171-.488v-2.6A1.34,1.34,0,0,0,13.577,0h-2.6a1.305,1.305,0,0,0-1.3,1.3V3.9A8.945,8.945,0,0,0,8.5,4.392L6.68,2.57a1.335,1.335,0,0,0-1.887,0L2.97,4.457a1.335,1.335,0,0,0,0,1.887L4.825,8.167a7.408,7.408,0,0,0-.488,1.171h-2.6A1.34,1.34,0,0,0,.4,10.672v2.6a1.305,1.305,0,0,0,1.3,1.3H4.3a8.945,8.945,0,0,0,.488,1.171L2.97,17.57a1.335,1.335,0,0,0,0,1.887l1.855,1.855a1.335,1.335,0,0,0,1.887,0l1.822-1.855a7.408,7.408,0,0,0,1.171.488v2.6a1.34,1.34,0,0,0,1.334,1.334h2.6a1.305,1.305,0,0,0,1.3-1.3v-2.6a8.945,8.945,0,0,0,1.171-.488l1.822,1.822a1.335,1.335,0,0,0,1.887,0l1.855-1.855a1.335,1.335,0,0,0,0-1.887l-1.887-1.855a7.408,7.408,0,0,0,.488-1.171h2.6a1.34,1.34,0,0,0,1.334-1.334v-2.6A1.307,1.307,0,0,0,22.883,9.338ZM12.308,16.594a4.653,4.653,0,1,1,4.685-4.653A4.652,4.652,0,0,1,12.308,16.594Z" transform="translate(-0.4 0)" fill="#eaeaea"/>
      </g>
    </g>
  </g>
</svg>
