<svg id="_009-mail-7" data-name="009-mail-7" xmlns="http://www.w3.org/2000/svg" width="20.616" height="24.46" viewBox="0 0 20.616 24.46">
  <g id="Group_67376" data-name="Group 67376" transform="translate(0 11.78)">
    <g id="Group_67375" data-name="Group 67375">
      <path id="Path_4702" data-name="Path 4702" d="M54.657,213.685a.441.441,0,0,0-.578-.075l-8.615,5.583a.587.587,0,0,1-.636,0l-8.562-5.548a.441.441,0,0,0-.623.031l-.008.009a3.531,3.531,0,0,0-.794,2.282v7a3.049,3.049,0,0,0,3.244,3.244H52.207a3.049,3.049,0,0,0,3.244-3.244v-7A3.213,3.213,0,0,0,54.657,213.685Z" transform="translate(-34.84 -213.531)" fill="#eaeaea"/>
    </g>
  </g>
  <g id="Group_67378" data-name="Group 67378" transform="translate(1.638)">
    <g id="Group_67377" data-name="Group 67377">
      <path id="Path_4703" data-name="Path 4703" d="M80.543.018,65.408,0a.883.883,0,0,0-.883.883v9.75a.441.441,0,0,0,.2.375l8.236,5.34a.441.441,0,0,0,.49,0L81.222,11.3a.441.441,0,0,0,.2-.375V.9A.883.883,0,0,0,80.543.018ZM67.456,3.972h7.41a.441.441,0,1,1,0,.883h-7.41a.441.441,0,0,1,0-.883ZM78.446,9.82H67.456a.441.441,0,0,1,0-.883h10.99a.441.441,0,0,1,0,.883Zm0-2.472H67.456a.441.441,0,0,1,0-.883h10.99a.441.441,0,0,1,0,.883Z" transform="translate(-64.526)" fill="#eaeaea"/>
    </g>
  </g>
</svg>
