<svg xmlns="http://www.w3.org/2000/svg" width="28" height="28" viewBox="0 0 28 28">
  <g id="Group_69616" data-name="Group 69616" transform="translate(14401 10400)">
    <g id="user" transform="translate(-14399.327 -10398.326)">
      <path id="Path_4801" data-name="Path 4801" d="M11.216,226.593a.826.826,0,0,1,.338-.541l.911-.658c-.009-.043-.017-.084-.023-.121s-.008-.051-.012-.076l-1.1-.2a.8.8,0,0,1-.628-.97l.446-2.485a.821.821,0,0,1,.339-.536.8.8,0,0,1,.611-.127l1.092.2c.021-.034.043-.067.064-.1l.041-.064v0l-.649-.954a.761.761,0,0,1-.144-.43.83.83,0,0,1,.349-.7l1.326-.932a7.751,7.751,0,0,0-1.637-.891c-.083.066-.169.126-.255.187-.025.018-.05.038-.076.055q-.221.154-.453.287l-.038.023q-.247.138-.5.254c-.056.025-.113.045-.169.068-.114.046-.227.092-.343.131-.078.027-.157.049-.236.073-.1.03-.2.058-.307.082-.08.019-.161.037-.242.053-.115.022-.23.04-.346.055-.07.009-.139.02-.209.027-.189.018-.379.03-.57.03s-.38-.012-.569-.03c-.071-.007-.141-.018-.211-.027-.115-.015-.228-.033-.342-.054-.083-.016-.166-.034-.248-.054-.1-.024-.2-.051-.3-.079-.082-.024-.165-.048-.246-.075-.109-.037-.216-.08-.323-.123-.063-.026-.128-.048-.19-.076-.168-.075-.332-.158-.493-.248-.031-.018-.061-.038-.092-.056-.135-.079-.267-.162-.4-.251-.037-.025-.072-.053-.108-.079-.074-.054-.151-.105-.223-.163A8.15,8.15,0,0,0,0,224.626v3.736H3.731a.373.373,0,0,1-.09-.238V226.1a.38.38,0,0,1,.761,0v2.027a.372.372,0,0,1-.09.238H12.15l-.8-1.18a.783.783,0,0,1-.133-.589Zm0,0" transform="translate(0 -206.261)" fill="#eaeaea"/>
      <path id="Path_4802" data-name="Path 4802" d="M321.461,314.965a2.084,2.084,0,0,0-.38-.035,2.13,2.13,0,0,0-1.228.4,2.191,2.191,0,0,0-.9,1.41,2.215,2.215,0,0,0,.356,1.646,2.135,2.135,0,0,0,1.381.916,2.114,2.114,0,0,0,1.608-.361,2.188,2.188,0,0,0,.9-1.41,2.263,2.263,0,0,0-.357-1.648,2.139,2.139,0,0,0-1.38-.914Zm0,0" transform="translate(-303.12 -299.333)" fill="#eaeaea"/>
      <path id="Path_4803" data-name="Path 4803" d="M70.907,10.341l.019.012c.127.09.259.173.394.251.054.031.109.058.163.087.089.048.178.094.269.136.072.033.145.062.217.092s.157.063.237.091.16.054.24.078.161.045.242.065.159.039.239.055.192.033.288.046c.068.009.135.021.2.028.167.016.336.027.506.027s.34-.011.508-.027c.067-.007.133-.018.2-.027.1-.014.2-.028.293-.047.079-.015.157-.034.234-.054s.167-.043.249-.067.156-.049.233-.076.166-.061.248-.095.139-.057.207-.088c.1-.044.19-.093.283-.143.05-.027.1-.052.15-.08.136-.079.269-.163.4-.253l.016-.011a5.73,5.73,0,0,0,2.381-4.686,5.4,5.4,0,1,0-10.8,0,5.731,5.731,0,0,0,2.381,4.687Zm0,0" transform="translate(-65.133)" fill="#eaeaea"/>
      <path id="Path_4804" data-name="Path 4804" d="M242.006,230.511l-1.369-.254a.273.273,0,0,1-.215-.2,2.206,2.206,0,0,1-.04-.252c0-.033-.008-.066-.019-.118-.006-.017-.014-.06-.029-.129a.874.874,0,0,0-.038-.141.271.271,0,0,1,.1-.321l1.154-.811a.169.169,0,0,0,.07-.113l.006-.042-1.507-2.257-.053.04-.017,0-1.234.831a.273.273,0,0,1-.341-.024,1.151,1.151,0,0,0-.159-.115l-.091-.06a1.369,1.369,0,0,0-.251-.145.272.272,0,0,1-.155-.3l.25-1.391a.171.171,0,0,0-.025-.133.16.16,0,0,0-.107-.067l-2.451-.454-.024,0-.024.006a.173.173,0,0,0-.141.135l-.25,1.391a.272.272,0,0,1-.2.216,1.984,1.984,0,0,1-.237.04l-.027,0c-.028,0-.055.007-.1.018-.016.005-.058.014-.12.028a.825.825,0,0,0-.142.039.271.271,0,0,1-.327-.1l-.8-1.173-.03-.05H233a.261.261,0,0,0-.063-.011l-.339.214h-.075v.052l-1.7,1.2a.17.17,0,0,0-.07.113l-.006.042.833,1.248a.271.271,0,0,1-.023.334,1.162,1.162,0,0,0-.115.164l-.057.089a1.409,1.409,0,0,0-.145.259.272.272,0,0,1-.3.156l-1.369-.254-.025,0-.024.006a.172.172,0,0,0-.141.136l-.452,2.526,0,.142,1.474.285a.272.272,0,0,1,.215.2,2.237,2.237,0,0,1,.04.253c0,.033.008.066.014.1a1.7,1.7,0,0,0,.071.286.271.271,0,0,1-.094.319l-1.128.815a.175.175,0,0,0-.074.116l-.007.042,1.514,2.25.051-.032a.15.15,0,0,0,.04.006l1.219-.831a.278.278,0,0,1,.342.024,1.139,1.139,0,0,0,.159.115l.091.061a1.353,1.353,0,0,0,.25.144.272.272,0,0,1,.155.3l-.25,1.39a.162.162,0,0,0,.132.2l2.487.461.024-.007a.175.175,0,0,0,.141-.135l.25-1.391a.271.271,0,0,1,.2-.216,2.213,2.213,0,0,1,.235-.04c.037,0,.074-.009.109-.015a1.641,1.641,0,0,0,.284-.072.274.274,0,0,1,.326.1l.8,1.173.041.048.053,0a.2.2,0,0,0,.056.01l2.119-1.464a.169.169,0,0,0,.07-.113l.006-.042-.833-1.247a.27.27,0,0,1,.023-.335,1.124,1.124,0,0,0,.115-.163l.058-.09a1.435,1.435,0,0,0,.143-.258.27.27,0,0,1,.3-.157l1.393.258.024-.007a.173.173,0,0,0,.141-.135l.445-2.5a.21.21,0,0,0-.15-.213Zm-3.694.75a2.836,2.836,0,0,1-1.171,1.828,2.758,2.758,0,0,1-3.9-.723,2.851,2.851,0,0,1,.713-3.956,2.779,2.779,0,0,1,1.6-.515,2.73,2.73,0,0,1,.5.046,2.789,2.789,0,0,1,1.8,1.193,2.913,2.913,0,0,1,.457,2.126Zm0,0" transform="translate(-217.592 -212.952)" fill="#eaeaea"/>
    </g>
    <rect id="Rectangle_4328" data-name="Rectangle 4328" width="28" height="28" transform="translate(-14401 -10400)" fill="none"/>
  </g>
</svg>
