<svg xmlns="http://www.w3.org/2000/svg" width="28" height="28" viewBox="0 0 28 28">
  <g id="Group_68063" data-name="Group 68063" transform="translate(-30 -12)">
    <rect id="Rectangle_4291" data-name="Rectangle 4291" width="28" height="28" transform="translate(30 12)" fill="none"/>
    <path id="SOLID-13" d="M3.72,0a3.621,3.621,0,0,0-3.6,3.608V7.2a3.619,3.619,0,0,0,3.6,3.605h3.6A3.629,3.629,0,0,0,10.924,7.2v-3.6A3.631,3.631,0,0,0,7.316,0Zm13.2,0a3.621,3.621,0,0,0-3.6,3.608V7.2a3.619,3.619,0,0,0,3.6,3.605h3.608a3.619,3.619,0,0,0,3.6-3.605v-3.6A3.621,3.621,0,0,0,20.528,0ZM3.72,13.212a3.611,3.611,0,0,0-3.6,3.6v3.6a3.619,3.619,0,0,0,3.6,3.605h3.6a3.629,3.629,0,0,0,3.608-3.605v-3.6a3.621,3.621,0,0,0-3.608-3.6Zm13.2,0a3.611,3.611,0,0,0-3.6,3.6v3.6a3.619,3.619,0,0,0,3.6,3.605h3.608a3.619,3.619,0,0,0,3.6-3.605v-3.6a3.611,3.611,0,0,0-3.6-3.6Z" transform="translate(31.877 14)" fill="#eaeaea"/>
  </g>
</svg>
