<svg xmlns="http://www.w3.org/2000/svg" width="28" height="28" viewBox="0 0 28 28">
  <g id="Group_69614" data-name="Group 69614" transform="translate(14641 10399)">
    <g id="multiple-users-silhouette" transform="translate(-14639.679 -10401.988)">
      <path id="Path_4807" data-name="Path 4807" d="M15.3,10.01a4.607,4.607,0,0,1,2.144,3.422A3.717,3.717,0,1,0,15.3,10.01Zm-2.436,7.613a3.718,3.718,0,1,0-3.719-3.718A3.718,3.718,0,0,0,12.863,17.623Zm1.577.253H11.285a4.766,4.766,0,0,0-4.761,4.761V26.5l.01.06.266.083a21.671,21.671,0,0,0,6.473,1.044,13.289,13.289,0,0,0,5.652-1.061l.248-.126H19.2V22.637A4.765,4.765,0,0,0,14.44,17.876Zm6.152-3.838H17.461a4.582,4.582,0,0,1-1.414,3.192,5.657,5.657,0,0,1,4.041,5.413v1.189a12.811,12.811,0,0,0,4.99-1.048l.248-.126h.027V18.8A4.766,4.766,0,0,0,20.592,14.038ZM6.339,13.785a3.694,3.694,0,0,0,1.977-.574,4.6,4.6,0,0,1,1.73-2.935c0-.07.01-.139.01-.209a3.718,3.718,0,1,0-3.718,3.718ZM9.678,17.23a4.585,4.585,0,0,1-1.413-3.174c-.116-.009-.231-.018-.349-.018H4.761A4.766,4.766,0,0,0,0,18.8v3.859l.01.059.266.084a22.321,22.321,0,0,0,5.361,1.008V22.643A5.658,5.658,0,0,1,9.678,17.23Z" fill="#eaeaea"/>
    </g>
    <rect id="Rectangle_4330" data-name="Rectangle 4330" width="28" height="28" transform="translate(-14641 -10399)" fill="none"/>
  </g>
</svg>
